<?xml version="1.0" standalone="no"?>
<!DOCTYPE svg PUBLIC "-//W3C//DTD SVG 20010904//EN"
 "http://www.w3.org/TR/2001/REC-SVG-20010904/DTD/svg10.dtd">
<svg version="1.0" xmlns="http://www.w3.org/2000/svg"
 width="128.000000pt" height="128.000000pt" viewBox="0 0 128.000000 128.000000"
 preserveAspectRatio="xMidYMid meet">

<g transform="translate(0.000000,128.000000) scale(0.100000,-0.100000)"
fill="#000000" stroke="none">
<path d="M535 1226 c-38 -8 -83 -20 -100 -27 l-30 -12 35 -7 c19 -3 48 -13 64
-21 22 -12 40 -14 84 -7 104 16 254 -20 349 -86 27 -18 68 -36 93 -40 25 -4
56 -10 70 -13 23 -5 22 -2 -15 37 -132 141 -359 213 -550 176z"/>
<path d="M665 897 c0 -86 -40 -166 -109 -218 -57 -43 -104 -59 -178 -59 l-55
0 8 -47 c13 -67 44 -125 92 -173 156 -157 421 -114 525 84 24 45 27 62 27 146
0 79 -4 103 -23 142 -46 94 -145 167 -247 183 l-40 7 0 -65z"/>
<path d="M77 824 c-25 -79 -28 -103 -28 -191 1 -151 54 -288 158 -402 59 -66
78 -76 63 -35 -6 14 -10 41 -10 59 0 24 -12 52 -40 91 -67 96 -83 151 -87 294
-2 92 -8 139 -22 179 l-19 53 -15 -48z"/>
<path d="M1231 562 c0 -7 -21 -27 -46 -44 -25 -18 -45 -37 -45 -42 0 -20 -57
-124 -91 -165 -45 -57 -128 -119 -194 -146 -34 -13 -65 -35 -79 -53 -12 -17
-33 -40 -47 -51 l-24 -21 30 6 c191 37 338 137 430 289 41 68 79 182 72 217
-2 13 -5 17 -6 10z"/>
</g>
</svg>
