<?xml version="1.0" standalone="no"?>
<!DOCTYPE svg PUBLIC "-//W3C//DTD SVG 20010904//EN"
 "http://www.w3.org/TR/2001/REC-SVG-20010904/DTD/svg10.dtd">
<svg version="1.0" xmlns="http://www.w3.org/2000/svg"
 width="256.000000pt" height="256.000000pt" viewBox="0 0 256.000000 256.000000"
 preserveAspectRatio="xMidYMid meet">

<g transform="translate(0.000000,256.000000) scale(0.100000,-0.100000)"
fill="#000000" stroke="none">
<path d="M1190 2470 c-104 -10 -201 -31 -300 -67 l-75 -27 64 -13 c36 -7 95
-27 132 -44 65 -30 69 -31 137 -20 263 41 536 -28 765 -193 73 -52 82 -56 135
-57 31 0 87 -8 125 -18 37 -9 67 -14 67 -10 0 16 -173 181 -241 229 -237 167
-526 245 -809 220z"/>
<path d="M1335 1809 c0 -139 -22 -214 -96 -323 -73 -109 -164 -178 -293 -221
-61 -20 -94 -25 -180 -25 l-106 0 0 -35 c0 -64 22 -140 67 -234 61 -128 160
-229 283 -289 112 -55 184 -72 300 -72 192 0 325 55 461 190 70 69 94 101 128
170 54 111 75 208 68 325 -10 171 -73 313 -191 431 -106 105 -244 174 -384
190 l-57 6 0 -113z"/>
<path d="M162 1653 c-50 -158 -57 -206 -56 -383 0 -145 3 -178 26 -271 48
-191 135 -361 256 -504 52 -60 162 -165 175 -165 2 0 -4 24 -14 53 -10 29 -21
89 -25 132 -6 75 -10 84 -55 145 -106 141 -181 338 -198 518 -8 88 0 264 14
301 3 7 -8 41 -25 75 -17 33 -36 89 -43 123 -7 34 -15 65 -19 68 -3 3 -19 -38
-36 -92z"/>
<path d="M2447 1105 c-21 -24 -66 -65 -101 -89 -51 -37 -65 -53 -75 -88 -18
-57 -75 -170 -122 -240 -112 -165 -295 -307 -487 -379 -56 -21 -69 -31 -108
-86 -24 -33 -65 -79 -90 -101 l-47 -40 84 14 c173 27 367 109 505 212 94 70
224 203 283 291 64 94 137 253 165 361 25 94 42 190 34 190 -2 0 -21 -20 -41
-45z"/>
</g>
</svg>
